<svg xmlns="http://www.w3.org/2000/svg" viewBox="0 0 64 64" role="img" aria-label="90 Minutos Sports">
  <defs>
    <linearGradient id="bg" x1="8" y1="0" x2="56" y2="64" gradientUnits="userSpaceOnUse">
      <stop offset="0%" stop-color="#b04a58"/>
      <stop offset="45%" stop-color="#8f2f3d"/>
      <stop offset="100%" stop-color="#3a0c14"/>
    </linearGradient>
    <linearGradient id="num" x1="10" y1="8" x2="54" y2="46" gradientUnits="userSpaceOnUse">
      <stop offset="0%" stop-color="#ffffff"/>
      <stop offset="100%" stop-color="#f3d5d8"/>
    </linearGradient>
    <linearGradient id="pitch" x1="0" y1="51" x2="0" y2="64" gradientUnits="userSpaceOnUse">
      <stop offset="0%" stop-color="#22c55e"/>
      <stop offset="100%" stop-color="#15803d"/>
    </linearGradient>
    <clipPath id="round">
      <rect width="64" height="64" rx="14"/>
    </clipPath>
  </defs>

  <rect width="64" height="64" rx="14" fill="url(#bg)"/>

  <!-- Césped -->
  <g clip-path="url(#round)">
    <rect y="51.5" width="64" height="12.5" fill="url(#pitch)"/>
    <path d="M0 52.2h64" stroke="#86efac" stroke-width="1.1" opacity=".55"/>
    <path d="M32 51.5v12.5" stroke="#bbf7d0" stroke-width="1" opacity=".4"/>
    <path d="M22.5 64a9.5 9.5 0 0 1 19 0" fill="none" stroke="#bbf7d0" stroke-width="1" opacity=".45"/>
  </g>

  <!-- 90 -->
  <g fill="url(#num)">
    <!-- 9 -->
    <path d="
      M21.8 11.8
      c-6.7 0-11.35 4.5-11.35 10.75
      0 6.1 4.55 10.55 11.05 10.55
      1.9 0 3.6-.45 5.05-1.2
      V41
      h5.7
      V22.55
      c0-6.4-4.5-10.75-10.45-10.75
      zm.2 4.5
      c3.45 0 5.9 2.55 5.9 6.15
      0 3.55-2.45 6.05-5.9 6.05
      s-5.9-2.5-5.9-6.05
      c0-3.6 2.45-6.15 5.9-6.15z
    "/>
    <!-- 0 -->
    <path d="
      M45.6 11.8
      c-6.95 0-11.8 5.35-11.8 15.55
      S38.65 42.9 45.6 42.9
      57.4 37.55 57.4 27.35
      52.55 11.8 45.6 11.8
      zm0 4.5
      c3.85 0 6.4 3.7 6.4 11.05
      s-2.55 11.05-6.4 11.05
      -6.4-3.7-6.4-11.05
      2.55-11.05 6.4-11.05z
    "/>
  </g>

  <!-- Mini-balón dentro del 0 -->
  <g transform="translate(45.6 27.35)" fill="none" stroke="#8f2f3d" stroke-width="1.15" stroke-linejoin="round" opacity=".55">
    <path d="M0-4.2 L4-1.3 L2.5 3.4 H-2.5 L-4-1.3 Z" fill="#8f2f3d" fill-opacity=".2"/>
    <path d="M0-4.2 V-7.2M4-1.3 L6.8-3M2.5 3.4 L4.5 6.2M-2.5 3.4 L-4.5 6.2M-4-1.3 L-6.8-3" stroke-linecap="round"/>
  </g>

  <rect x=".85" y=".85" width="62.3" height="62.3" rx="13.15" fill="none" stroke="#fff" stroke-opacity=".14"/>
</svg>
